<svg width="16" height="15" viewBox="0 0 16 15" fill="none" xmlns="http://www.w3.org/2000/svg">
<path d="M6.11087 1.47188C6.73347 -0.319236 9.26653 -0.319237 9.88913 1.47188L10.3644 2.83926C10.6391 3.6294 11.3765 4.16514 12.2128 4.18218L13.6601 4.21168C15.556 4.25031 16.3387 6.6594 14.8277 7.80501L13.6741 8.67959C13.0075 9.18496 12.7258 10.0518 12.9681 10.8525L13.3873 12.2381C13.9364 14.0531 11.8871 15.542 10.3306 14.4589L9.14236 13.632C8.45573 13.1542 7.54427 13.1542 6.85764 13.632L5.66939 14.4589C4.11291 15.542 2.06362 14.0531 2.61272 12.2381L3.03192 10.8525C3.27415 10.0518 2.9925 9.18496 2.3259 8.67959L1.17233 7.80501C-0.338736 6.6594 0.444024 4.25031 2.33987 4.21168L3.7872 4.18218C4.62354 4.16514 5.36092 3.6294 5.63558 2.83926L6.11087 1.47188Z" fill="#EB742E"/>
</svg>
