<svg width="406" height="12" viewBox="0 0 406 12" fill="none" xmlns="http://www.w3.org/2000/svg">
<path d="M373.495 1.44087C364.621 1.1248 355.746 0.892399 346.871 0.622815C343.943 0.529855 341 0.529889 338.072 0.483409C331.716 0.381154 325.36 0.288187 319.003 0.185931C315.469 0.130155 311.919 0.06509 308.384 0.0186101C307.352 0.00931414 306.336 0 305.304 0C302.998 0 300.693 0.0185625 298.387 0.0278584C287.904 0.0371544 277.406 0.0464686 266.923 0.0464686C264.42 0.0464686 261.932 0.0836502 259.429 0.102242C253.24 0.148722 247.065 0.20453 240.891 0.25101C233.912 0.306786 226.949 0.325332 219.971 0.436884C208.684 0.604212 197.412 0.780881 186.126 0.948209C179.587 1.05046 173.064 1.10621 166.526 1.26424C155.269 1.54312 144.028 1.81271 132.771 2.08229C126.627 2.23103 120.468 2.35189 114.324 2.5657C102.688 2.96543 91.0528 3.35583 79.4171 3.75556C73.1972 3.96936 66.9773 4.1274 60.7726 4.45276C49.1824 5.057 37.6074 5.66125 26.0172 6.26548C23.5141 6.39563 21.011 6.52576 18.5079 6.6559C13.5017 6.91619 8.52576 7.32524 3.5347 7.66919C3.21612 7.69708 2.91272 7.72498 2.59414 7.74357C2.00249 7.84583 1.47153 8.03172 1.03159 8.30131C0.379261 8.70103 0 9.25881 0 9.82586C0 10.3929 0.379261 10.9506 1.03159 11.3597C1.62323 11.7222 2.65481 12.0569 3.5347 11.9918C9.55735 11.5735 15.5648 11.1366 21.5875 10.8205C27.1854 10.5324 32.7681 10.2349 38.366 9.94671C44.4645 9.63065 50.563 9.31457 56.6615 8.99851C59.1191 8.86836 61.5767 8.70106 64.0495 8.6174C73.5613 8.29204 83.0731 7.97594 92.585 7.65058C98.5166 7.44607 104.448 7.25088 110.38 7.04637C112.837 6.96271 115.28 6.86043 117.738 6.79536C127.158 6.56296 136.594 6.34913 146.015 6.13533C151.734 6.00518 157.438 5.86575 163.158 5.73561C165.084 5.68913 166.996 5.63334 168.922 5.60545C179.102 5.45671 189.281 5.31731 199.461 5.17787C205.149 5.09421 210.823 5.01983 216.512 4.93617C218.53 4.90828 220.563 4.86177 222.58 4.85248C233.078 4.7874 243.576 4.72237 254.074 4.6573C260.628 4.61082 267.166 4.57362 273.72 4.58291C284.87 4.60151 296.02 4.61079 307.155 4.62938C309.355 4.62938 311.555 4.6852 313.754 4.73168C319.913 4.84323 326.057 4.95477 332.217 5.06632C336.828 5.14999 341.44 5.23361 346.067 5.31728C349.344 5.37305 352.606 5.52181 355.883 5.63336C365.516 5.94943 375.149 6.28411 384.767 6.64665C387.209 6.73961 389.652 6.85113 392.094 6.96268C394.719 7.07424 397.343 7.19509 399.953 7.37171C400.362 7.40889 400.757 7.4554 401.166 7.51117C402.198 7.64132 403.184 7.60413 404.109 7.27877C404.959 6.972 405.596 6.46072 405.869 5.87507C406.415 4.648 405.202 3.33723 403.199 2.99328C401.439 2.69581 399.619 2.57501 397.813 2.46346C396.57 2.38909 395.341 2.30543 394.097 2.23106C391.715 2.08232 389.318 2.00791 386.936 1.89636C382.461 1.71974 377.971 1.5989 373.495 1.44087Z" fill="#C6FF53"/>
</svg>
