<svg width="49" height="2" viewBox="0 0 49 2" fill="none" xmlns="http://www.w3.org/2000/svg">
<path d="M44.2272 0.240144C43.1763 0.187467 42.1254 0.148733 41.0745 0.103803C40.7278 0.0883092 40.3793 0.0883149 40.0326 0.0805682C39.2799 0.0635256 38.5272 0.0480311 37.7745 0.0309885C37.356 0.0216925 36.9356 0.0108483 36.517 0.00310169C36.3949 0.00155236 36.2745 0 36.1524 0C35.8793 0 35.6063 0.00309374 35.3332 0.00464308C34.0919 0.00619241 32.8488 0.00774476 31.6075 0.00774476C31.3111 0.00774476 31.0165 0.0139417 30.7201 0.0170404C29.9872 0.024787 29.256 0.0340883 28.5249 0.041835C27.6986 0.0511309 26.874 0.054222 26.0477 0.072814C24.7112 0.100702 23.3764 0.130147 22.0399 0.158035C21.2657 0.175077 20.4932 0.184368 19.719 0.210707C18.3861 0.257187 17.0549 0.302118 15.722 0.347049C14.9945 0.371838 14.2651 0.391982 13.5376 0.427617C12.1598 0.494238 10.7819 0.559305 9.40411 0.625926C8.66759 0.661561 7.93107 0.687899 7.19634 0.742126C5.8239 0.842833 4.45326 0.943541 3.08081 1.04425C2.78441 1.06594 2.488 1.08763 2.1916 1.10932C1.59879 1.1527 1.00957 1.22087 0.418558 1.2782C0.380834 1.28285 0.344907 1.2875 0.307183 1.2906C0.237124 1.30764 0.17425 1.33862 0.122155 1.38355C0.0449098 1.45017 0 1.54313 0 1.63764C0 1.73215 0.0449098 1.82511 0.122155 1.89328C0.192214 1.9537 0.314368 2.00949 0.418558 1.99864C1.13173 1.92892 1.8431 1.8561 2.55626 1.80342C3.21913 1.75539 3.88021 1.70582 4.54307 1.65779C5.26522 1.60511 5.98737 1.55243 6.70952 1.49975C7.00054 1.47806 7.29155 1.45018 7.58437 1.43623C8.7107 1.38201 9.83704 1.32932 10.9634 1.2751C11.6658 1.24101 12.3682 1.20848 13.0705 1.1744C13.3616 1.16045 13.6508 1.14341 13.9418 1.13256C15.0574 1.09383 16.1747 1.05819 17.2903 1.02255C17.9675 1.00086 18.643 0.977625 19.3202 0.955934C19.5483 0.948188 19.7747 0.93889 20.0028 0.934242C21.2082 0.909452 22.4136 0.886218 23.619 0.862978C24.2926 0.849034 24.9645 0.836638 25.6381 0.822694C25.877 0.818046 26.1177 0.810295 26.3567 0.808746C27.5998 0.797901 28.8429 0.787062 30.086 0.776216C30.862 0.76847 31.6363 0.76227 32.4123 0.763819C33.7326 0.766918 35.053 0.768465 36.3715 0.771564C36.632 0.771564 36.8925 0.780867 37.153 0.788614C37.8823 0.807205 38.6098 0.825795 39.3392 0.844387C39.8853 0.858331 40.4314 0.872269 40.9793 0.886213C41.3673 0.895509 41.7535 0.920302 42.1415 0.938894C43.2823 0.991571 44.423 1.04735 45.5619 1.10778C45.8511 1.12327 46.1403 1.14186 46.4295 1.16045C46.7403 1.17904 47.0511 1.19918 47.3601 1.22862C47.4086 1.23482 47.4553 1.24257 47.5038 1.25186C47.6259 1.27355 47.7427 1.26736 47.8523 1.21313C47.9529 1.162 48.0283 1.07679 48.0607 0.979178C48.1253 0.774667 47.9816 0.556205 47.7445 0.49888C47.5361 0.449301 47.3205 0.429168 47.1068 0.410576C46.9595 0.398182 46.814 0.384238 46.6667 0.371843C46.3846 0.347054 46.1008 0.334652 45.8188 0.31606C45.2888 0.286623 44.7571 0.266483 44.2272 0.240144Z" fill="#C6FF53"/>
</svg>
