<svg width="324" height="11" viewBox="0 0 324 11" fill="none" xmlns="http://www.w3.org/2000/svg">
<path d="M25.9183 2.19877C32.9936 1.93538 40.0689 1.74171 47.1443 1.51706C49.4785 1.43959 51.8249 1.43962 54.1592 1.40089C59.2268 1.31567 64.2944 1.2382 69.3621 1.15299C72.1801 1.10651 75.0103 1.05229 77.8283 1.01356C78.6507 1.00581 79.4611 0.998047 80.2835 0.998047C82.1219 0.998047 83.9603 1.01352 85.7986 1.02126C94.156 1.02901 102.525 1.03677 110.883 1.03677C112.878 1.03677 114.862 1.06776 116.858 1.08325C121.792 1.12198 126.715 1.16849 131.637 1.20722C137.201 1.2537 142.752 1.26916 148.316 1.36212C157.314 1.50156 166.3 1.64878 175.299 1.78822C180.512 1.87343 185.712 1.91989 190.925 2.05158C199.899 2.28398 208.861 2.50864 217.835 2.73329C222.734 2.85724 227.644 2.95796 232.543 3.13613C241.819 3.46924 251.096 3.79457 260.372 4.12768C265.331 4.30585 270.29 4.43754 275.236 4.70868C284.477 5.21221 293.705 5.71575 302.945 6.21928C304.941 6.32774 306.936 6.43618 308.932 6.54463C312.923 6.76154 316.89 7.10241 320.869 7.38904C321.123 7.41228 321.365 7.43553 321.619 7.45102C322.091 7.53624 322.514 7.69115 322.865 7.9158C323.385 8.24891 323.688 8.71372 323.688 9.18627C323.688 9.65881 323.385 10.1236 322.865 10.4644C322.393 10.7666 321.571 11.0455 320.869 10.9913C316.068 10.6427 311.278 10.2786 306.477 10.0152C302.014 9.77502 297.563 9.52712 293.1 9.28698C288.238 9.02359 283.376 8.76019 278.514 8.4968C276.555 8.38835 274.595 8.24893 272.624 8.17921C265.041 7.90808 257.457 7.64466 249.874 7.37353C245.145 7.2031 240.416 7.04045 235.687 6.87002C233.728 6.8003 231.781 6.71508 229.821 6.66085C222.311 6.46718 214.788 6.28899 207.277 6.11082C202.717 6.00237 198.17 5.88617 193.61 5.77772C192.074 5.73899 190.55 5.69249 189.014 5.66925C180.899 5.54531 172.783 5.42914 164.668 5.31294C160.132 5.24322 155.609 5.18124 151.073 5.11152C149.465 5.08828 147.844 5.04952 146.235 5.04178C137.866 4.98755 129.496 4.93335 121.127 4.87913C115.902 4.84039 110.689 4.8094 105.464 4.81714C96.575 4.83263 87.6854 4.84037 78.808 4.85587C77.0542 4.85587 75.3006 4.90238 73.5468 4.94111C68.6364 5.03407 63.7381 5.12702 58.8277 5.21998C55.1509 5.2897 51.4742 5.35939 47.7853 5.42911C45.1729 5.47559 42.5725 5.59956 39.9601 5.69252C32.28 5.9559 24.5999 6.2348 16.9319 6.53692C14.9847 6.61439 13.0375 6.70732 11.0903 6.80028C8.99789 6.89324 6.90552 6.99395 4.82526 7.14114C4.49872 7.17212 4.18423 7.21088 3.85767 7.25736C3.03525 7.36581 2.24908 7.33482 1.51132 7.06369C0.834015 6.80805 0.32608 6.38198 0.108368 5.89394C-0.327026 4.87138 0.640503 3.77907 2.237 3.49245C3.63998 3.24455 5.09134 3.14389 6.53061 3.05093C7.52237 2.98896 8.50201 2.91924 9.49377 2.85726C11.3926 2.73332 13.3036 2.67131 15.2024 2.57835C18.7703 2.43116 22.3503 2.33046 25.9183 2.19877Z" fill="#2B6648"/>
</svg>
