<svg width="574" height="544" viewBox="0 0 574 544" fill="none" xmlns="http://www.w3.org/2000/svg">
<g opacity="0.6">
<line x1="48" y1="87.5" x2="533.998" y2="87.5" stroke="white"/>
<line x1="48" y1="154.166" x2="533.998" y2="154.166" stroke="white"/>
<line x1="48" y1="220.834" x2="533.998" y2="220.834" stroke="white"/>
<line x1="48" y1="287.498" x2="533.998" y2="287.498" stroke="white"/>
<line x1="48" y1="354.166" x2="533.998" y2="354.166" stroke="white"/>
<line x1="48" y1="420.832" x2="533.998" y2="420.832" stroke="white"/>
<line x1="48" y1="487.5" x2="533.998" y2="487.5" stroke="white"/>
<line x1="431.578" y1="88" x2="431.578" y2="488" stroke="white"/>
<line x1="495.422" y1="88" x2="495.422" y2="488" stroke="white"/>
<line x1="534.5" y1="88" x2="534.5" y2="488" stroke="white"/>
<line x1="367.734" y1="88" x2="367.734" y2="488" stroke="white"/>
<line x1="303.891" y1="88" x2="303.891" y2="488" stroke="white"/>
<line x1="240.055" y1="88" x2="240.055" y2="488" stroke="white"/>
<line x1="176.188" y1="88" x2="176.187" y2="488" stroke="white"/>
<line x1="112.344" y1="88" x2="112.344" y2="488" stroke="white"/>
<line x1="48.5" y1="88" x2="48.5" y2="488" stroke="white"/>
</g>
</svg>
