<svg width="24" height="25" viewBox="0 0 24 25" fill="none" xmlns="http://www.w3.org/2000/svg">
<path d="M12 2.99805C14.717 2.99805 15.056 3.00805 16.122 3.05805C17.187 3.10805 17.912 3.27505 18.55 3.52305C19.21 3.77705 19.766 4.12105 20.322 4.67605C20.8305 5.17594 21.224 5.78064 21.475 6.44805C21.722 7.08505 21.89 7.81105 21.94 8.87605C21.987 9.94205 22 10.281 22 12.998C22 15.715 21.99 16.054 21.94 17.12C21.89 18.185 21.722 18.91 21.475 19.548C21.2247 20.2158 20.8311 20.8207 20.322 21.32C19.822 21.8284 19.2173 22.2218 18.55 22.473C17.913 22.72 17.187 22.888 16.122 22.938C15.056 22.985 14.717 22.998 12 22.998C9.283 22.998 8.944 22.988 7.878 22.938C6.813 22.888 6.088 22.72 5.45 22.473C4.78233 22.2225 4.17753 21.829 3.678 21.32C3.16941 20.8202 2.77593 20.2155 2.525 19.548C2.277 18.911 2.11 18.185 2.06 17.12C2.013 16.054 2 15.715 2 12.998C2 10.281 2.01 9.94205 2.06 8.87605C2.11 7.81005 2.277 7.08605 2.525 6.44805C2.77524 5.78023 3.1688 5.17537 3.678 4.67605C4.17767 4.16728 4.78243 3.77378 5.45 3.52305C6.088 3.27505 6.812 3.10805 7.878 3.05805C8.944 3.01105 9.283 2.99805 12 2.99805ZM12 7.99805C10.6739 7.99805 9.40215 8.52483 8.46447 9.46251C7.52678 10.4002 7 11.672 7 12.998C7 14.3241 7.52678 15.5959 8.46447 16.5336C9.40215 17.4713 10.6739 17.998 12 17.998C13.3261 17.998 14.5979 17.4713 15.5355 16.5336C16.4732 15.5959 17 14.3241 17 12.998C17 11.672 16.4732 10.4002 15.5355 9.46251C14.5979 8.52483 13.3261 7.99805 12 7.99805ZM18.5 7.74805C18.5 7.41653 18.3683 7.09858 18.1339 6.86416C17.8995 6.62974 17.5815 6.49805 17.25 6.49805C16.9185 6.49805 16.6005 6.62974 16.3661 6.86416C16.1317 7.09858 16 7.41653 16 7.74805C16 8.07957 16.1317 8.39751 16.3661 8.63193C16.6005 8.86635 16.9185 8.99805 17.25 8.99805C17.5815 8.99805 17.8995 8.86635 18.1339 8.63193C18.3683 8.39751 18.5 8.07957 18.5 7.74805ZM12 9.99805C12.7956 9.99805 13.5587 10.3141 14.1213 10.8767C14.6839 11.4393 15 12.2024 15 12.998C15 13.7937 14.6839 14.5568 14.1213 15.1194C13.5587 15.682 12.7956 15.998 12 15.998C11.2044 15.998 10.4413 15.682 9.87868 15.1194C9.31607 14.5568 9 13.7937 9 12.998C9 12.2024 9.31607 11.4393 9.87868 10.8767C10.4413 10.3141 11.2044 9.99805 12 9.99805Z" fill="#1D1D1D"/>
</svg>
