<svg width="236" height="11" viewBox="0 0 236 11" fill="none" xmlns="http://www.w3.org/2000/svg">
<path d="M217.106 1.32079C211.947 1.03107 206.788 0.818032 201.63 0.570914C199.928 0.485701 198.217 0.485732 196.515 0.443125C192.82 0.349391 189.125 0.264171 185.43 0.170437C183.376 0.119309 181.312 0.0596659 179.258 0.0170593C178.658 0.00853796 178.067 0 177.468 0C176.127 0 174.787 0.0170156 173.446 0.0255369C167.353 0.0340582 161.251 0.0425962 155.157 0.0425962C153.702 0.0425962 152.256 0.0766794 150.801 0.093722C147.203 0.136329 143.614 0.187486 140.025 0.230092C135.969 0.28122 131.921 0.298221 127.865 0.400477C121.304 0.553861 114.752 0.715807 108.191 0.869191C104.391 0.962926 100.599 1.01402 96.7981 1.15889C90.2549 1.41453 83.7206 1.66165 77.1775 1.90877C73.6061 2.04511 70.0258 2.1559 66.4544 2.35189C59.6908 2.71831 52.9272 3.07618 46.1636 3.44259C42.5481 3.63858 38.9326 3.78345 35.326 4.08169C28.5888 4.63558 21.8605 5.18948 15.1233 5.74336C13.6683 5.86266 12.2133 5.98194 10.7583 6.10124C7.84825 6.33984 4.95586 6.7148 2.05465 7.03009C1.86947 7.05565 1.69311 7.08123 1.50792 7.09827C1.16401 7.19201 0.855372 7.36241 0.599642 7.60953C0.220457 7.97595 0 8.48724 0 9.00704C0 9.52684 0.220457 10.0381 0.599642 10.413C0.943555 10.7454 1.54319 11.0522 2.05465 10.9925C5.5555 10.6091 9.04754 10.2086 12.5484 9.91883C15.8023 9.65467 19.0475 9.38198 22.3014 9.11782C25.8463 8.8281 29.3913 8.53836 32.9362 8.24863C34.3648 8.12933 35.7933 7.97597 37.2307 7.89928C42.7598 7.60103 48.2888 7.31128 53.8179 7.01303C57.2658 6.82556 60.7138 6.64664 64.1617 6.45917C65.5903 6.38248 67.01 6.28873 68.4386 6.22908C73.9147 6.01605 79.3997 5.82004 84.8758 5.62405C88.2003 5.50475 91.516 5.37694 94.8404 5.25764C95.9604 5.21503 97.0715 5.16389 98.1914 5.13833C104.108 5.00199 110.026 4.8742 115.943 4.74638C119.249 4.66969 122.547 4.60151 125.854 4.52482C127.027 4.49925 128.209 4.45663 129.382 4.4481C135.484 4.38845 141.586 4.32884 147.688 4.26919C151.498 4.22658 155.298 4.19248 159.108 4.201C165.589 4.21805 172.071 4.22656 178.543 4.2436C179.822 4.2436 181.101 4.29477 182.379 4.33737C185.96 4.43963 189.531 4.54187 193.111 4.64413C195.792 4.72082 198.473 4.79748 201.162 4.87417C203.067 4.9253 204.963 5.06166 206.868 5.16392C212.467 5.45364 218.067 5.76043 223.658 6.09276C225.077 6.17798 226.497 6.2802 227.917 6.38246C229.442 6.48472 230.968 6.5955 232.485 6.7574C232.723 6.79149 232.952 6.83411 233.19 6.88524C233.79 7.00454 234.363 6.97045 234.901 6.67221C235.395 6.391 235.765 5.92232 235.924 5.38548C236.241 4.26067 235.536 3.05913 234.372 2.74384C233.349 2.47116 232.291 2.36043 231.241 2.25817C230.518 2.19 229.804 2.11331 229.081 2.04514C227.696 1.9088 226.303 1.84059 224.919 1.73833C222.317 1.57643 219.707 1.46566 217.106 1.32079Z" fill="#EB742E"/>
</svg>
