<svg width="24" height="25" viewBox="0 0 24 25" fill="none" xmlns="http://www.w3.org/2000/svg">
<path d="M18.335 19.337H15.67V15.16C15.67 14.164 15.65 12.882 14.28 12.882C12.891 12.882 12.679 13.966 12.679 15.087V19.337H10.013V10.748H12.573V11.918H12.608C12.966 11.244 13.836 10.531 15.136 10.531C17.836 10.531 18.336 12.309 18.336 14.622V19.337H18.335ZM7.003 9.57305C6.79956 9.57331 6.59806 9.53342 6.41006 9.45565C6.22207 9.37789 6.05127 9.26379 5.90746 9.11988C5.76365 8.97598 5.64965 8.80511 5.57201 8.61706C5.49437 8.42901 5.4546 8.22749 5.455 8.02405C5.4552 7.71788 5.54618 7.41865 5.71644 7.16419C5.8867 6.90974 6.12859 6.71148 6.41153 6.5945C6.69447 6.47752 7.00574 6.44706 7.30598 6.50699C7.60622 6.56691 7.88196 6.71452 8.09831 6.93115C8.31466 7.14778 8.46191 7.42371 8.52145 7.72403C8.58099 8.02435 8.55013 8.33558 8.43278 8.61836C8.31543 8.90115 8.11687 9.14279 7.86219 9.31272C7.60751 9.48265 7.30817 9.57324 7.002 9.57305H7.003ZM8.339 19.337H5.666V10.748H8.34V19.337H8.339ZM19.67 3.99805H4.329C3.593 3.99805 3 4.57805 3 5.29505V20.701C3 21.418 3.594 21.998 4.328 21.998H19.666C20.4 21.998 21 21.418 21 20.701V5.29505C21 4.57805 20.4 3.99805 19.666 3.99805H19.669H19.67Z" fill="#1D1D1D"/>
</svg>
