<svg width="25" height="25" viewBox="0 0 25 25" fill="none" xmlns="http://www.w3.org/2000/svg">
<path fill-rule="evenodd" clip-rule="evenodd" d="M11.7752 22.6446C16.9778 22.6446 21.1954 18.427 21.1954 13.2244C21.1954 8.02181 16.9778 3.80426 11.7752 3.80426C6.5726 3.80426 2.35504 8.02181 2.35504 13.2244C2.35504 18.427 6.5726 22.6446 11.7752 22.6446ZM11.7752 24.9996C18.2785 24.9996 23.5504 19.7277 23.5504 13.2244C23.5504 6.72116 18.2785 1.44922 11.7752 1.44922C5.27194 1.44922 0 6.72116 0 13.2244C0 19.7277 5.27194 24.9996 11.7752 24.9996Z" fill="#1D1D1D"/>
<path fill-rule="evenodd" clip-rule="evenodd" d="M11.7761 17.9315C14.3774 17.9315 16.4861 15.8227 16.4861 13.2214C16.4861 10.6201 14.3774 8.51129 11.7761 8.51129C9.17476 8.51129 7.06598 10.6201 7.06598 13.2214C7.06598 15.8227 9.17476 17.9315 11.7761 17.9315ZM11.7761 20.2865C15.678 20.2865 18.8412 17.1233 18.8412 13.2214C18.8412 9.31941 15.678 6.15625 11.7761 6.15625C7.8741 6.15625 4.71094 9.31941 4.71094 13.2214C4.71094 17.1233 7.8741 20.2865 11.7761 20.2865Z" fill="#1D1D1D"/>
<path fill-rule="evenodd" clip-rule="evenodd" d="M11.7691 15.5773C13.0698 15.5773 14.1241 14.5229 14.1241 13.2222C14.1241 11.9216 13.0698 10.8672 11.7691 10.8672C10.4685 10.8672 9.41406 11.9216 9.41406 13.2222C9.41406 14.5229 10.4685 15.5773 11.7691 15.5773Z" fill="#1D1D1D"/>
<path d="M20.9478 2.01001C20.8103 1.04955 19.6354 0.658191 18.9494 1.34435L16.3215 3.97302C16.0595 4.23509 15.9361 4.60521 15.9885 4.97207L16.2859 7.05363L11.5402 11.7993C11.0803 12.2592 11.0803 13.0047 11.5402 13.4646C12.0001 13.9244 12.7456 13.9244 13.2055 13.4646L17.9512 8.71882L20.0325 9.01614C20.3994 9.06856 20.7696 8.94517 21.0317 8.68308L23.6602 6.05455C24.3463 5.36842 23.9546 4.19345 22.9941 4.05624L21.2041 3.80056L20.9478 2.01001Z" fill="#1D1D1D"/>
</svg>
