<svg width="57" height="3" viewBox="0 0 57 3" fill="none" xmlns="http://www.w3.org/2000/svg">
<path d="M52.043 1.18134C50.8224 1.05965 49.601 0.958864 48.3801 0.848789C47.9773 0.811469 47.5716 0.79731 47.1684 0.771603C46.2931 0.715457 45.4177 0.661632 44.5423 0.605485C44.0556 0.574535 43.5668 0.541191 43.08 0.512562C42.9378 0.505274 42.7978 0.498054 42.6556 0.493088C42.3378 0.481988 42.0197 0.475526 41.7018 0.466749C40.2567 0.41861 38.8095 0.370404 37.3645 0.319942C37.0194 0.307893 36.6762 0.305207 36.3309 0.297802C35.4773 0.279621 34.6257 0.263842 33.7742 0.245734C32.8118 0.226077 31.8518 0.197192 30.8888 0.191471C29.3315 0.178946 27.7762 0.168828 26.2189 0.156303C25.3167 0.150377 24.417 0.132903 23.5143 0.140913C21.9602 0.156405 20.4083 0.169649 18.8543 0.182818C18.0061 0.190404 17.156 0.190953 16.3072 0.214797C14.6997 0.258657 13.0924 0.300187 11.485 0.344047C10.6257 0.367525 9.76693 0.377068 8.90879 0.428491C7.30584 0.523667 5.70499 0.618918 4.10205 0.714094C3.75586 0.734561 3.40968 0.755024 3.0635 0.775491C2.37113 0.816424 1.68165 0.894672 0.990647 0.956581C0.946489 0.962016 0.904422 0.967527 0.860345 0.970638C0.777896 0.993339 0.703083 1.03723 0.640086 1.10247C0.546677 1.1992 0.489531 1.33673 0.484583 1.47841C0.479636 1.62008 0.527049 1.76126 0.613402 1.86659C0.691796 1.96002 0.831075 2.04861 0.952932 2.03659C1.78679 1.96106 2.61871 1.88082 3.45167 1.83084C4.22584 1.78579 4.998 1.73834 5.77216 1.69328C6.61558 1.64367 7.459 1.59406 8.30241 1.54445C8.64232 1.52376 8.98256 1.49379 9.32415 1.48479C10.6382 1.44929 11.9521 1.4161 13.2661 1.3806C14.0856 1.35805 14.9049 1.33784 15.7244 1.3153C16.0639 1.30622 16.4014 1.29243 16.7408 1.288C18.0414 1.27528 19.344 1.26728 20.6445 1.25921C21.434 1.25423 22.2216 1.24685 23.0111 1.24186C23.2771 1.23952 23.541 1.23479 23.8069 1.23709C25.2114 1.24893 26.6158 1.2631 28.0202 1.27726C28.8051 1.28375 29.5879 1.29247 30.3728 1.29896C30.6512 1.3017 30.9318 1.29987 31.21 1.30726C32.6577 1.34153 34.1053 1.37582 35.553 1.41009C36.4568 1.43003 37.3584 1.45221 38.2618 1.48608C39.7986 1.5444 41.3356 1.60039 42.8703 1.65864C43.1736 1.66923 43.4763 1.69376 43.7791 1.71596C44.6272 1.77348 45.4731 1.83093 46.3212 1.88845C46.9562 1.93155 47.5912 1.97464 48.2283 2.01782C48.6795 2.04753 49.1278 2.1004 49.5785 2.14404C50.9037 2.26938 52.2286 2.39937 53.5513 2.53625C53.8872 2.57123 54.2229 2.61085 54.5586 2.65048C54.9194 2.69099 55.2801 2.73381 55.6383 2.7905C55.6944 2.80176 55.7484 2.81528 55.8043 2.83119C55.9454 2.86867 56.0817 2.86413 56.2121 2.78729C56.3318 2.71474 56.4241 2.59006 56.4669 2.44505C56.5529 2.1411 56.397 1.80777 56.124 1.71219C55.884 1.6294 55.6341 1.59045 55.3862 1.55389C55.2154 1.52932 55.0467 1.5025 54.8759 1.47794C54.5489 1.42931 54.2191 1.39918 53.8918 1.35984C53.2764 1.29417 52.6585 1.24236 52.043 1.18134Z" fill="#EB742E"/>
</svg>
