<svg width="26" height="25" viewBox="0 0 26 25" fill="none" xmlns="http://www.w3.org/2000/svg">
<path fill-rule="evenodd" clip-rule="evenodd" d="M0.945313 12.5C0.945313 11.9477 1.55932 11.5 2.31674 11.5L23.5739 11.5C24.3313 11.5 24.9453 11.9477 24.9453 12.5C24.9453 13.0523 24.3313 13.5 23.5739 13.5L2.31674 13.5C1.55932 13.5 0.945313 13.0523 0.945313 12.5Z" fill="#1D1D1D"/>
<path fill-rule="evenodd" clip-rule="evenodd" d="M17.2929 19.7071C16.9024 19.3166 16.9024 18.6834 17.2929 18.2929L23.0858 12.5L17.2929 6.70711C16.9024 6.31658 16.9024 5.68342 17.2929 5.29289C17.6834 4.90237 18.3166 4.90237 18.7071 5.29289L24.5 11.0858C25.281 11.8668 25.281 13.1332 24.5 13.9142L18.7071 19.7071C18.3166 20.0976 17.6834 20.0976 17.2929 19.7071Z" fill="#1D1D1D"/>
</svg>
