<svg width="241" height="12" viewBox="0 0 241 12" fill="none" xmlns="http://www.w3.org/2000/svg">
<path d="M221.723 1.44087C216.477 1.1248 211.231 0.892399 205.985 0.622815C204.254 0.529855 202.514 0.529889 200.783 0.483409C197.026 0.381154 193.268 0.288187 189.511 0.185931C187.421 0.130155 185.323 0.06509 183.233 0.0186101C182.624 0.00931414 182.023 0 181.413 0C180.05 0 178.687 0.0185625 177.324 0.0278584C171.127 0.0371544 164.921 0.0464686 158.725 0.0464686C157.245 0.0464686 155.774 0.0836502 154.295 0.102242C150.636 0.148722 146.986 0.20453 143.336 0.25101C139.211 0.306786 135.095 0.325332 130.97 0.436884C124.298 0.604212 117.635 0.780881 110.963 0.948209C107.097 1.05046 103.241 1.10621 99.3762 1.26424C92.7222 1.54312 86.0771 1.81271 79.423 2.08229C75.7911 2.23103 72.1502 2.35189 68.5183 2.5657C61.64 2.96543 54.7618 3.35583 47.8835 3.75556C44.2068 3.96936 40.53 4.1274 36.8622 4.45276C30.0109 5.05699 23.1685 5.66125 16.3172 6.26548C14.8375 6.39563 13.3578 6.52576 11.8781 6.6559C8.91877 6.91619 5.97736 7.32524 3.02698 7.66919C2.83865 7.69708 2.6593 7.72498 2.47098 7.74357C2.12124 7.84583 1.80737 8.03172 1.54731 8.30131C1.16169 8.70103 0.9375 9.25881 0.9375 9.82586C0.9375 10.3929 1.16169 10.9506 1.54731 11.3597C1.89705 11.7222 2.50685 12.0569 3.02698 11.9918C6.58716 11.5735 10.1384 11.1366 13.6986 10.8205C17.0077 10.5324 20.3078 10.2349 23.6169 9.94671C27.2219 9.63065 30.8269 9.31457 34.432 8.99851C35.8847 8.86836 37.3375 8.70106 38.7992 8.6174C44.422 8.29204 50.0448 7.97594 55.6675 7.65058C59.1739 7.44607 62.6803 7.25088 66.1867 7.04637C67.6395 6.96271 69.0833 6.86043 70.536 6.79536C76.105 6.56296 81.6829 6.34913 87.2519 6.13533C90.6327 6.00518 94.0046 5.86575 97.3854 5.73561C98.5243 5.68913 99.6542 5.63334 100.793 5.60545C106.81 5.45671 112.828 5.31731 118.845 5.17787C122.208 5.09421 125.562 5.01983 128.925 4.93617C130.118 4.90828 131.319 4.86177 132.512 4.85248C138.718 4.78741 144.923 4.72237 151.129 4.6573C155.003 4.61082 158.868 4.57362 162.742 4.58291C169.333 4.60151 175.925 4.61079 182.507 4.62938C183.807 4.62938 185.108 4.6852 186.408 4.73168C190.049 4.84323 193.681 4.95477 197.322 5.06632C200.048 5.14999 202.774 5.23361 205.509 5.31728C207.446 5.37305 209.374 5.52181 211.311 5.63336C217.006 5.94943 222.7 6.28411 228.386 6.64665C229.83 6.73961 231.274 6.85113 232.717 6.96268C234.269 7.07423 235.82 7.19509 237.363 7.37171C237.605 7.40889 237.838 7.4554 238.08 7.51117C238.69 7.64131 239.273 7.60413 239.82 7.27877C240.322 6.972 240.699 6.46072 240.86 5.87507C241.183 4.648 240.465 3.33723 239.282 2.99328C238.241 2.69581 237.165 2.57501 236.098 2.46346C235.363 2.38909 234.636 2.30543 233.901 2.23106C232.493 2.08232 231.076 2.00791 229.668 1.89636C227.023 1.71974 224.368 1.5989 221.723 1.44087Z" fill="#C6FF53"/>
</svg>
