<svg width="16" height="16" viewBox="0 0 16 16" fill="none" xmlns="http://www.w3.org/2000/svg">
<path fill-rule="evenodd" clip-rule="evenodd" d="M8 -4.37114e-08C8.55228 -1.95703e-08 9 0.447715 9 1L9 15C9 15.5523 8.55228 16 8 16C7.44771 16 7 15.5523 7 15L7 1C7 0.447715 7.44772 -6.78525e-08 8 -4.37114e-08Z" fill="#1D1D1D"/>
<path fill-rule="evenodd" clip-rule="evenodd" d="M0 8C0 7.44772 0.447715 7 1 7H15C15.5523 7 16 7.44772 16 8C16 8.55228 15.5523 9 15 9H1C0.447715 9 0 8.55228 0 8Z" fill="#1D1D1D"/>
</svg>
