<svg width="123" height="27" viewBox="0 0 123 27" fill="none" xmlns="http://www.w3.org/2000/svg">
<path d="M20.6146 10.2139C20.5558 10.0504 20.4504 9.90772 20.3114 9.80344C20.1724 9.69916 20.0059 9.63787 19.8324 9.62714L14.759 9.31611L12.479 4.50281C12.4064 4.34777 12.2904 4.21707 12.1451 4.12647C11.9998 4.03588 11.8314 3.98927 11.6602 3.99227C11.489 3.99527 11.3224 4.04775 11.1804 4.14337C11.0383 4.239 10.927 4.37369 10.8599 4.53118L8.75526 9.42459L3.69635 9.91868C3.52638 9.93524 3.36477 10.0004 3.23087 10.1064C3.09697 10.2124 2.99645 10.3547 2.94132 10.5164C2.88619 10.678 2.8788 10.8521 2.92002 11.0178C2.96125 11.1836 3.04935 11.3339 3.17378 11.4509L6.9836 15.0329L5.7631 20.7904C5.72603 20.9647 5.7422 21.1461 5.80951 21.311C5.87681 21.476 5.99215 21.617 6.14055 21.7156C6.28895 21.8142 6.46357 21.8659 6.64173 21.8641C6.8199 21.8622 6.9934 21.8068 7.13971 21.7051L11.9201 18.3919L16.8171 21.5303C16.9703 21.6281 17.1497 21.6766 17.3313 21.6693C17.5129 21.662 17.6879 21.5993 17.8328 21.4896C17.9776 21.38 18.0855 21.2285 18.1417 21.0557C18.198 20.8829 18.2 20.697 18.1474 20.5231L16.4193 14.8651L20.3847 11.1648C20.6443 10.9219 20.7345 10.5487 20.6146 10.2139Z" fill="#FEBC12"/>
<path d="M45.6503 10.8047C45.5915 10.6412 45.486 10.4985 45.347 10.3943C45.208 10.29 45.0415 10.2287 44.8681 10.218L39.7946 9.90693L37.5146 5.09363C37.442 4.93859 37.326 4.80789 37.1808 4.71729C37.0355 4.6267 36.8671 4.58009 36.6959 4.58309C36.5247 4.58609 36.358 4.63857 36.216 4.73419C36.074 4.82982 35.9627 4.96451 35.8955 5.122L33.7909 10.0154L28.732 10.5095C28.562 10.5261 28.4004 10.5912 28.2665 10.6972C28.1326 10.8032 28.0321 10.9456 27.977 11.1072C27.9218 11.2688 27.9144 11.4429 27.9557 11.6087C27.9969 11.7744 28.085 11.9247 28.2094 12.0417L32.0192 15.6237L30.7987 21.3812C30.7617 21.5555 30.7778 21.7369 30.8452 21.9019C30.9125 22.0668 31.0278 22.2078 31.1762 22.3064C31.3246 22.405 31.4992 22.4567 31.6774 22.4549C31.8555 22.453 32.029 22.3976 32.1753 22.296L36.9558 18.9827L41.8527 22.1211C42.0059 22.2189 42.1854 22.2674 42.367 22.2601C42.5485 22.2529 42.7235 22.1902 42.8684 22.0805C43.0133 21.9708 43.1211 21.8193 43.1774 21.6465C43.2336 21.4737 43.2356 21.2879 43.1831 21.1139L41.455 15.4559L45.4203 11.7556C45.68 11.5127 45.7701 11.1395 45.6503 10.8047Z" fill="#FEBC12"/>
<path d="M70.6503 10.8047C70.5915 10.6412 70.486 10.4985 70.347 10.3943C70.208 10.29 70.0415 10.2287 69.8681 10.218L64.7946 9.90693L62.5146 5.09363C62.442 4.93859 62.326 4.80789 62.1808 4.71729C62.0355 4.6267 61.8671 4.58009 61.6959 4.58309C61.5247 4.58609 61.358 4.63857 61.216 4.73419C61.074 4.82982 60.9627 4.96451 60.8955 5.122L58.7909 10.0154L53.732 10.5095C53.562 10.5261 53.4004 10.5912 53.2665 10.6972C53.1326 10.8032 53.0321 10.9456 52.977 11.1072C52.9218 11.2688 52.9144 11.4429 52.9557 11.6087C52.9969 11.7744 53.085 11.9247 53.2094 12.0417L57.0192 15.6237L55.7987 21.3812C55.7617 21.5555 55.7778 21.7369 55.8452 21.9019C55.9125 22.0668 56.0278 22.2078 56.1762 22.3064C56.3246 22.405 56.4992 22.4567 56.6774 22.4549C56.8555 22.453 57.029 22.3976 57.1753 22.296L61.9558 18.9827L66.8527 22.1211C67.0059 22.2189 67.1854 22.2674 67.367 22.2601C67.5485 22.2529 67.7235 22.1902 67.8684 22.0805C68.0133 21.9708 68.1211 21.8193 68.1774 21.6465C68.2336 21.4737 68.2356 21.2879 68.1831 21.1139L66.455 15.4559L70.4203 11.7556C70.68 11.5127 70.7701 11.1395 70.6503 10.8047Z" fill="#FEBC12"/>
<path d="M95.6503 10.8047C95.5915 10.6412 95.486 10.4985 95.347 10.3943C95.208 10.29 95.0415 10.2287 94.8681 10.218L89.7946 9.90693L87.5146 5.09363C87.442 4.93859 87.326 4.80789 87.1808 4.71729C87.0355 4.6267 86.8671 4.58009 86.6959 4.58309C86.5247 4.58609 86.358 4.63857 86.216 4.73419C86.074 4.82982 85.9627 4.96451 85.8955 5.122L83.7909 10.0154L78.732 10.5095C78.562 10.5261 78.4004 10.5912 78.2665 10.6972C78.1326 10.8032 78.0321 10.9456 77.977 11.1072C77.9218 11.2688 77.9144 11.4429 77.9557 11.6087C77.9969 11.7744 78.085 11.9247 78.2094 12.0417L82.0192 15.6237L80.7987 21.3812C80.7617 21.5555 80.7778 21.7369 80.8452 21.9019C80.9125 22.0668 81.0278 22.2078 81.1762 22.3064C81.3246 22.405 81.4992 22.4567 81.6774 22.4549C81.8555 22.453 82.029 22.3976 82.1753 22.296L86.9558 18.9827L91.8527 22.1211C92.0059 22.2189 92.1854 22.2674 92.367 22.2601C92.5485 22.2529 92.7235 22.1902 92.8684 22.0805C93.0133 21.9708 93.1211 21.8193 93.1774 21.6465C93.2336 21.4737 93.2356 21.2879 93.1831 21.1139L91.455 15.4559L95.4203 11.7556C95.68 11.5127 95.7701 11.1395 95.6503 10.8047Z" fill="#FEBC12"/>
<path d="M120.65 10.8047C120.591 10.6412 120.486 10.4985 120.347 10.3943C120.208 10.29 120.042 10.2287 119.868 10.218L114.795 9.90693L112.515 5.09363C112.442 4.93859 112.326 4.80789 112.181 4.71729C112.035 4.6267 111.867 4.58009 111.696 4.58309C111.525 4.58609 111.358 4.63857 111.216 4.73419C111.074 4.82982 110.963 4.96451 110.896 5.122L108.791 10.0154L103.732 10.5095C103.562 10.5261 103.4 10.5912 103.267 10.6972C103.133 10.8032 103.032 10.9456 102.977 11.1072C102.922 11.2688 102.914 11.4429 102.956 11.6087C102.997 11.7744 103.085 11.9247 103.209 12.0417L107.019 15.6237L105.799 21.3812C105.762 21.5555 105.778 21.7369 105.845 21.9019C105.912 22.0668 106.028 22.2078 106.176 22.3064C106.325 22.405 106.499 22.4567 106.677 22.4549C106.856 22.453 107.029 22.3976 107.175 22.296L111.956 18.9827L116.853 22.1211C117.006 22.2189 117.185 22.2674 117.367 22.2601C117.549 22.2529 117.724 22.1902 117.868 22.0805C118.013 21.9708 118.121 21.8193 118.177 21.6465C118.234 21.4737 118.236 21.2879 118.183 21.1139L116.455 15.4559L120.42 11.7556C120.68 11.5127 120.77 11.1395 120.65 10.8047Z" fill="#FEBC12"/>
</svg>
