<?xml version="1.0" encoding="utf-8"?>
<!-- Generator: Adobe Illustrator 27.5.0, SVG Export Plug-In . SVG Version: 6.00 Build 0)  -->
<svg version="1.1" id="Layer_1" xmlns="http://www.w3.org/2000/svg" xmlns:xlink="http://www.w3.org/1999/xlink" x="0px" y="0px"
	 viewBox="0 0 49 49" style="enable-background:new 0 0 49 49;" xml:space="preserve">
<style type="text/css">
	.st0{fill:#0678E2;}
	.st1{fill:#FFFFFF;}
	.st2{fill:#FFFFFF;stroke:#0678E2;stroke-width:0.5669;stroke-miterlimit:10;}
	.st3{fill:#FFFFFF;stroke:#FFFFFF;stroke-width:0.5669;stroke-miterlimit:10;}
	.st4{fill-rule:evenodd;clip-rule:evenodd;fill:#FFFFFF;}
	.st5{fill-rule:evenodd;clip-rule:evenodd;fill:none;stroke:#FFFFFF;stroke-width:1.1249;stroke-miterlimit:22.9256;}
	.st6{fill-rule:evenodd;clip-rule:evenodd;fill:#0678E2;}
	.st7{fill:none;stroke:#FFFFFF;stroke-width:0.4038;stroke-linecap:round;stroke-linejoin:round;stroke-miterlimit:10;}
</style>
<path class="st0" d="M24.5,49L24.5,49C10.97,49,0,38.03,0,24.5v0C0,10.97,10.97,0,24.5,0h0C38.03,0,49,10.97,49,24.5v0
	C49,38.03,38.03,49,24.5,49z"/>
<path class="st4" d="M27.82,25.65l4.94,4.94c0.97,0.98,1.73,2.05,2.28,3.21c0.54,1.16,0.87,2.42,0.97,3.76
	c0.02,0.29-0.01,0.57-0.1,0.82c-0.09,0.26-0.23,0.5-0.43,0.71l0,0l0,0c-0.2,0.21-0.42,0.38-0.67,0.49
	c-0.25,0.11-0.52,0.17-0.81,0.17H31.4c-0.53,0-1.01-0.2-1.38-0.54c-0.36-0.33-0.6-0.8-0.65-1.33c-0.04-0.47-0.15-0.9-0.34-1.3
	c-0.19-0.4-0.46-0.78-0.8-1.12l0,0l-3.74-3.74l-3.74,3.74c-0.34,0.34-0.61,0.72-0.8,1.12c-0.19,0.4-0.3,0.84-0.34,1.3
	c-0.04,0.53-0.29,0.99-0.65,1.33c-0.36,0.33-0.85,0.54-1.38,0.54h-2.58c-0.29,0-0.56-0.06-0.81-0.17c-0.25-0.11-0.48-0.27-0.67-0.49
	l-0.02-0.02c-0.19-0.21-0.33-0.44-0.42-0.69c-0.09-0.26-0.12-0.54-0.1-0.82c0.1-1.34,0.43-2.6,0.97-3.76
	c0.54-1.16,1.3-2.23,2.28-3.21l4.94-4.94v-5.92H17.9c-0.19,0-0.34-0.15-0.34-0.34c0-0.08,0.03-0.15,0.07-0.21l6.58-9.77
	c0.1-0.15,0.31-0.2,0.47-0.09c0.04,0.03,0.07,0.06,0.09,0.09l6.59,9.79c0.1,0.15,0.06,0.36-0.09,0.47
	c-0.06,0.04-0.12,0.06-0.19,0.06v0h-3.27V25.65L27.82,25.65z"/>
</svg>
