<?xml version="1.0" encoding="utf-8"?>
<!-- Generator: Adobe Illustrator 27.5.0, SVG Export Plug-In . SVG Version: 6.00 Build 0)  -->
<svg version="1.1" id="Layer_1" xmlns="http://www.w3.org/2000/svg" xmlns:xlink="http://www.w3.org/1999/xlink" x="0px" y="0px"
	 viewBox="0 0 49 49" style="enable-background:new 0 0 49 49;" xml:space="preserve">
<style type="text/css">
	.st0{fill:#0678E2;}
	.st1{fill:#FFFFFF;}
	.st2{fill:#FFFFFF;stroke:#0678E2;stroke-width:0.5669;stroke-miterlimit:10;}
	.st3{fill:#FFFFFF;stroke:#FFFFFF;stroke-width:0.5669;stroke-miterlimit:10;}
	.st4{fill-rule:evenodd;clip-rule:evenodd;fill:#FFFFFF;}
	.st5{fill-rule:evenodd;clip-rule:evenodd;fill:none;stroke:#FFFFFF;stroke-width:1.1249;stroke-miterlimit:22.9256;}
	.st6{fill-rule:evenodd;clip-rule:evenodd;fill:#0678E2;}
	.st7{fill:none;stroke:#FFFFFF;stroke-width:0.4038;stroke-linecap:round;stroke-linejoin:round;stroke-miterlimit:10;}
</style>
<path class="st0" d="M24.5,49L24.5,49C10.97,49,0,38.03,0,24.5v0C0,10.97,10.97,0,24.5,0h0C38.03,0,49,10.97,49,24.5v0
	C49,38.03,38.03,49,24.5,49z"/>
<g id="NewGroupe0_9_">
	<g id="NewGroup9-0">
		<g>
			<path class="st1" d="M24.5,19.95c-2.51,0-4.55,2.04-4.55,4.55c0,0.79,0.2,1.52,0.55,2.17c0.42-0.84,1.1-1.54,1.94-1.97
				c-0.23-0.37-0.36-0.81-0.36-1.28c0-1.34,1.09-2.42,2.42-2.42s2.42,1.09,2.42,2.42c0,0.47-0.13,0.91-0.36,1.28
				c0.84,0.44,1.52,1.13,1.94,1.97c0.35-0.65,0.55-1.38,0.55-2.17C29.05,21.99,27.01,19.95,24.5,19.95L24.5,19.95z"/>
			<path class="st1" d="M25.97,25.35c-0.41,0.31-0.92,0.5-1.47,0.5s-1.06-0.19-1.47-0.5c-0.92,0.41-1.63,1.19-1.96,2.14
				c0.83,0.96,2.06,1.56,3.43,1.56s2.59-0.61,3.43-1.56C27.6,26.53,26.89,25.75,25.97,25.35L25.97,25.35z"/>
			<path class="st1" d="M24.5,25c0.87,0,1.58-0.71,1.58-1.58c0-0.87-0.71-1.58-1.58-1.58c-0.87,0-1.58,0.71-1.58,1.58
				C22.92,24.29,23.63,25,24.5,25L24.5,25z"/>
			<path class="st1" d="M28.69,27.87c-0.99,1.23-2.5,2.01-4.19,2.01s-3.21-0.79-4.19-2.01c-0.02-0.02-0.04-0.05-0.06-0.07
				c-0.71-0.91-1.14-2.06-1.14-3.3c0-2.97,2.42-5.39,5.39-5.39c2.97,0,5.39,2.42,5.39,5.39c0,1.24-0.42,2.39-1.14,3.3
				C28.73,27.83,28.72,27.85,28.69,27.87L28.69,27.87z M34.81,22.82c-0.79,0-1.45,0.54-1.64,1.27h-1.67
				c-0.09-1.62-0.74-3.09-1.74-4.23l1.19-1.19c0.27,0.16,0.56,0.24,0.86,0.24c0.43,0,0.87-0.17,1.2-0.5c0.66-0.66,0.66-1.73,0-2.4
				c-0.66-0.66-1.73-0.66-2.4,0c-0.56,0.56-0.64,1.41-0.26,2.06l-1.19,1.19c-1.14-1.01-2.61-1.66-4.22-1.76v-1.68
				c0.73-0.19,1.27-0.85,1.27-1.64c0-0.93-0.76-1.69-1.69-1.69c-0.93,0-1.69,0.76-1.69,1.69c0,0.79,0.54,1.45,1.27,1.64v1.67
				c-1.62,0.09-3.09,0.74-4.23,1.74l-1.19-1.19c0.15-0.26,0.24-0.56,0.24-0.86c0-0.45-0.18-0.88-0.5-1.2l0,0
				c-0.32-0.32-0.75-0.5-1.2-0.5c-0.45,0-0.88,0.18-1.2,0.5c-0.66,0.66-0.66,1.73,0,2.4c0.32,0.32,0.75,0.5,1.2,0.5
				c0.31,0,0.61-0.08,0.86-0.24l1.19,1.19c-1.01,1.14-1.66,2.61-1.76,4.22h-1.68c-0.19-0.73-0.85-1.27-1.64-1.27
				c-0.93,0-1.69,0.76-1.69,1.69c0,0.93,0.76,1.69,1.69,1.69c0.79,0,1.45-0.54,1.64-1.27h1.67c0.09,1.62,0.74,3.09,1.74,4.23
				l-1.19,1.19c-0.65-0.39-1.5-0.3-2.06,0.26c-0.66,0.66-0.66,1.73,0,2.4c0.33,0.33,0.76,0.5,1.2,0.5c0.43,0,0.87-0.17,1.2-0.5
				c0.56-0.56,0.64-1.41,0.26-2.06l1.19-1.19c1.14,1.01,2.61,1.66,4.22,1.76v1.68c-0.73,0.19-1.27,0.85-1.27,1.64
				c0,0.93,0.76,1.69,1.69,1.69c0.93,0,1.69-0.76,1.69-1.69c0-0.79-0.54-1.45-1.27-1.64v-1.67c1.62-0.09,3.09-0.74,4.23-1.74
				l1.19,1.19c-0.15,0.26-0.24,0.56-0.24,0.86c0,0.45,0.18,0.88,0.5,1.2l0,0c0.32,0.32,0.75,0.5,1.2,0.5c0.45,0,0.88-0.18,1.2-0.5
				c0.66-0.66,0.66-1.73,0-2.4c-0.32-0.32-0.75-0.5-1.2-0.5c-0.31,0-0.61,0.08-0.86,0.24l-1.19-1.19c1.01-1.14,1.66-2.61,1.76-4.22
				h1.68c0.19,0.73,0.85,1.27,1.64,1.27c0.93,0,1.69-0.76,1.69-1.69C36.5,23.58,35.74,22.82,34.81,22.82L34.81,22.82z"/>
		</g>
	</g>
</g>
</svg>
