<?xml version="1.0" encoding="utf-8"?>
<!-- Generator: Adobe Illustrator 27.5.0, SVG Export Plug-In . SVG Version: 6.00 Build 0)  -->
<svg version="1.1" id="Layer_1" xmlns="http://www.w3.org/2000/svg" xmlns:xlink="http://www.w3.org/1999/xlink" x="0px" y="0px"
	 viewBox="0 0 49 49" style="enable-background:new 0 0 49 49;" xml:space="preserve">
<style type="text/css">
	.st0{fill:#0678E2;}
	.st1{fill:#FFFFFF;}
	.st2{fill:#FFFFFF;stroke:#0678E2;stroke-width:0.5669;stroke-miterlimit:10;}
	.st3{fill:#FFFFFF;stroke:#FFFFFF;stroke-width:0.5669;stroke-miterlimit:10;}
	.st4{fill-rule:evenodd;clip-rule:evenodd;fill:#FFFFFF;}
	.st5{fill-rule:evenodd;clip-rule:evenodd;fill:none;stroke:#FFFFFF;stroke-width:1.1249;stroke-miterlimit:22.9256;}
	.st6{fill-rule:evenodd;clip-rule:evenodd;fill:#0678E2;}
	.st7{fill:none;stroke:#FFFFFF;stroke-width:0.4038;stroke-linecap:round;stroke-linejoin:round;stroke-miterlimit:10;}
</style>
<path class="st0" d="M24.5,49L24.5,49C10.97,49,0,38.03,0,24.5v0C0,10.97,10.97,0,24.5,0h0C38.03,0,49,10.97,49,24.5v0
	C49,38.03,38.03,49,24.5,49z"/>
<g>
	<path class="st1" d="M24.5,34.29c5,0,9.06-4.06,9.06-9.06c0-5-4.06-9.06-9.06-9.06c-5,0-9.06,4.06-9.06,9.06
		C15.44,30.23,19.5,34.29,24.5,34.29z M24.5,17.23c4.41,0,8,3.59,8,8c0,4.41-3.59,8-8,8s-8-3.59-8-8
		C16.5,20.82,20.09,17.23,24.5,17.23z"/>
	<path class="st1" d="M24.91,12.3c0-0.19-0.1-0.36-0.27-0.46c-0.16-0.09-0.37-0.09-0.53,0l-2.62,1.51
		c-0.16,0.09-0.27,0.27-0.27,0.46c0,0.19,0.1,0.36,0.27,0.46l2.62,1.51c0.08,0.05,0.17,0.07,0.27,0.07c0.09,0,0.18-0.02,0.27-0.07
		c0.16-0.09,0.27-0.27,0.27-0.46V14.3c5.84,0.22,10.53,5.04,10.53,10.93c0,6.03-4.91,10.94-10.94,10.94s-10.94-4.91-10.94-10.94
		c0-0.29-0.24-0.53-0.53-0.53c-0.29,0-0.53,0.24-0.53,0.53c0,6.62,5.38,12,12,12c6.62,0,12-5.38,12-12
		c0-6.48-5.16-11.78-11.59-11.99V12.3z M23.85,14.4l-1.02-0.59l1.02-0.59V14.4z"/>
	<path class="st1" d="M23.14,27.46c-0.32-0.16-0.65-0.38-0.97-0.65l-0.73,1.04c0.39,0.31,0.81,0.56,1.27,0.76
		c0.45,0.19,0.93,0.32,1.44,0.38v1.14h1V29c0.37-0.03,0.7-0.1,1-0.22c0.3-0.12,0.55-0.27,0.77-0.46c0.21-0.19,0.38-0.42,0.5-0.68
		c0.12-0.26,0.18-0.55,0.18-0.86c0-0.62-0.2-1.11-0.59-1.48c-0.39-0.37-1.02-0.67-1.89-0.89v-2.18c0.54,0.11,1.06,0.36,1.56,0.73
		l0.64-1.08c-0.32-0.24-0.65-0.43-1-0.57c-0.35-0.14-0.73-0.24-1.15-0.3v-0.69h-1V21c-0.36,0.03-0.69,0.1-0.98,0.22
		c-0.29,0.11-0.55,0.27-0.76,0.46c-0.21,0.19-0.38,0.42-0.49,0.68c-0.11,0.26-0.17,0.54-0.17,0.85c0,0.32,0.05,0.61,0.15,0.85
		c0.1,0.25,0.25,0.47,0.45,0.65c0.2,0.19,0.46,0.35,0.76,0.49c0.31,0.14,0.67,0.26,1.09,0.37v2.24
		C23.81,27.74,23.46,27.62,23.14,27.46z M25.08,25.77c0.22,0.07,0.4,0.14,0.55,0.21c0.14,0.07,0.26,0.15,0.35,0.24
		c0.09,0.09,0.15,0.18,0.18,0.29c0.03,0.1,0.05,0.22,0.05,0.35c0,0.27-0.1,0.5-0.29,0.68c-0.19,0.18-0.48,0.28-0.84,0.31V25.77z
		 M23.3,23.73c-0.15-0.16-0.22-0.37-0.22-0.61c0-0.25,0.09-0.47,0.27-0.65c0.18-0.18,0.46-0.28,0.82-0.31v2.02
		C23.74,24.04,23.44,23.89,23.3,23.73z"/>
</g>
</svg>
