<?xml version="1.0" encoding="UTF-8"?>
<svg xmlns="http://www.w3.org/2000/svg" version="1.1" viewBox="0 0 48 48">
  <defs>
    <style>
      .cls-1 {
        fill: #fff;
      }

      .cls-2 {
        fill: #fbfbfb;
      }

      .cls-3 {
        fill: #184785;
      }

      .cls-4 {
        fill: #f4fbfd;
      }
    </style>
  </defs>
  <!-- Generator: Adobe Illustrator 28.7.1, SVG Export Plug-In . SVG Version: 1.2.0 Build 142)  -->
  <g>
    <g id="Layer_1">
      <g>
        <rect class="cls-4" width="48" height="48" rx="2" ry="2"/>
        <g>
          <path class="cls-3" d="M17.01,18.67h0c.86,0,1.55.7,1.55,1.55v7.66h-3.11v-7.66c0-.86.7-1.55,1.55-1.55Z"/>
          <path class="cls-3" d="M21.7,15.99h0c-.86,0-1.55.7-1.55,1.55v10.34h3.11v-10.34c0-.86-.7-1.55-1.55-1.55Z"/>
          <path class="cls-3" d="M26.18,18.47h0c.86,0,1.55.7,1.55,1.55v7.86h-3.11v-7.86c0-.86.7-1.55,1.55-1.55Z"/>
          <path class="cls-3" d="M30.87,14.46h0c.86,0,1.55.7,1.55,1.55v11.87h-3.11v-11.87c0-.86.7-1.55,1.55-1.55Z"/>
          <path class="cls-3" d="M12.83,30.88c-.45-.24-.73-.7-.73-1.21v-14.73c0-.75.61-1.36,1.36-1.36h.76v1.37h-.74v14.72s0,0,0-.01l-.63,1.22Z"/>
          <path class="cls-3" d="M34.84,30.96l-.43-1.31s-.01,0-.01.01v-14.72h-1.25v-1.37h1.26c.75,0,1.36.61,1.36,1.36v14.73c0,.59-.38,1.11-.94,1.29Z"/>
          <circle class="cls-3" cx="16.83" cy="15.48" r="1.54"/>
          <circle class="cls-3" cx="21.59" cy="12.16" r="1.54"/>
          <circle class="cls-3" cx="26.44" cy="15.07" r="1.54"/>
          <circle class="cls-3" cx="30.89" cy="11.36" r="1.54"/>
          <polygon class="cls-3" points="17.75 15.78 16.87 14.52 20.91 11.69 22.75 11.91 25.53 13.67 27.14 13.52 29.49 11.43 30.51 12.57 27.79 15.01 25.15 15.25 22.22 13.39 21.31 13.28 17.75 15.78"/>
          <path class="cls-3" d="M37.68,38.18H10.32c-.5,0-.83-.53-.6-.97l3.44-6.94c.09.05.2.08.31.08h20.95c.07,0,.15-.01.21-.03l3.65,6.88c.24.45-.09.99-.6.99Z"/>
          <circle class="cls-2" cx="19.25" cy="35.11" r="1.13"/>
          <circle class="cls-2" cx="28.7" cy="35.11" r="1.13"/>
          <path class="cls-1" d="M25.8,35.76h-3.56c-.45,0-.81-.36-.81-.81s.36-.81.81-.81h3.56c.45,0,.81.36.81.81s-.36.81-.81.81Z"/>
          <rect class="cls-3" x="23.2" y="19.55" width="1.37" height="21.47" transform="translate(-6.45 54.12) rotate(-89.89)"/>
        </g>
      </g>
    </g>
  </g>
</svg>