<?xml version="1.0" encoding="UTF-8"?>
<svg xmlns="http://www.w3.org/2000/svg" version="1.1" viewBox="0 0 48 48">
  <defs>
    <style>
      .cls-1 {
        fill: #184785;
      }

      .cls-2 {
        fill: #f4fbfd;
      }
    </style>
  </defs>
  <!-- Generator: Adobe Illustrator 28.7.1, SVG Export Plug-In . SVG Version: 1.2.0 Build 142)  -->
  <g>
    <g id="Layer_1">
      <g>
        <rect class="cls-2" width="48" height="48" rx="2" ry="2"/>
        <g>
          <path class="cls-1" d="M24,30.81c-2.04,0-3.69,1.65-3.69,3.69,0,.26.03.52.08.77.11.53.34,1.02.65,1.43.67.9,1.74,1.48,2.95,1.48,2.04,0,3.69-1.65,3.69-3.69s-1.65-3.69-3.69-3.69ZM25.21,35.89c-.11.18-.26.32-.45.41-.15.07-.32.11-.52.12v.38h-.39v-.38c-.34-.03-.6-.13-.8-.31-.23-.21-.36-.52-.41-.93l.66-.07c.04.24.12.42.24.53.08.08.18.13.3.15.06.01.12.02.19.02.07,0,.14,0,.21-.02.12-.02.22-.07.29-.13.11-.1.17-.22.17-.35,0-.09-.02-.16-.07-.22-.05-.06-.13-.11-.24-.16-.03-.01-.08-.03-.14-.05-.1-.03-.23-.07-.39-.11,0,0,0,0,0,0-.36-.1-.62-.22-.76-.36-.21-.2-.31-.45-.31-.73,0-.19.05-.36.15-.52.1-.16.24-.28.42-.37.15-.07.32-.11.51-.12v-.46h.39v.47c.3.03.53.13.7.29.21.2.32.47.33.81l-.68.03c-.03-.19-.09-.32-.18-.4-.05-.04-.1-.07-.17-.09-.07-.02-.16-.03-.26-.03-.05,0-.09,0-.14,0-.13.02-.24.06-.32.12-.07.06-.11.13-.11.23,0,.09.03.16.1.22.06.05.17.1.33.16.08.03.18.06.29.09.03,0,.07.02.1.03.28.08.49.16.63.24.16.09.28.21.37.37.09.16.13.35.13.58,0,.21-.05.41-.16.59Z"/>
          <g>
            <circle class="cls-1" cx="24" cy="12.17" r="1.8"/>
            <g>
              <g>
                <g>
                  <circle class="cls-1" cx="28.14" cy="11.28" r="1.46"/>
                  <path class="cls-1" d="M30.58,14.66v.82h-3.38c-.09-.35-.41-1.11-1.39-1.4.23-.61.82-1.04,1.51-1.04h1.64c.89,0,1.62.72,1.62,1.62Z"/>
                </g>
                <g>
                  <circle class="cls-1" cx="19.86" cy="11.28" r="1.46"/>
                  <path class="cls-1" d="M22.19,14.08c-.99.29-1.31,1.06-1.4,1.4h-3.37v-.82c0-.89.72-1.62,1.62-1.62h1.64c.69,0,1.28.43,1.51,1.04Z"/>
                </g>
              </g>
              <path class="cls-1" d="M26.99,16.32v1.01h-5.99v-1.01c0-.23.04-.44.11-.65.02-.06.05-.13.08-.19.22-.47.61-.83,1.09-1.02.22-.08.46-.13.71-.13h2.02c.25,0,.49.05.71.13.48.18.88.55,1.09,1.02.03.06.05.12.08.19.07.2.11.42.11.65Z"/>
            </g>
          </g>
          <path class="cls-1" d="M17.42,18.85l3.29,4.29,2.05,2.67v3.61h2.48v-1.57h0v-2.04l2.05-2.67,3.29-4.29h-13.16ZM25.57,22.77l-.6.63-.39.41-.48.51c-.06.06-.15.06-.21,0l-.48-.51-.67-.7-.32-.33s-.06-.09-.06-.15c0-.02,0-.05.01-.07.02-.08.08-.13.15-.13h.6v-1.87c0-.09.06-.16.13-.16h1.47c.07,0,.13.07.13.16v1.87h.6c.07,0,.13.05.15.13.02.08,0,.16-.05.22Z"/>
        </g>
      </g>
    </g>
  </g>
</svg>