<?xml version="1.0" encoding="UTF-8"?>
<svg xmlns="http://www.w3.org/2000/svg" version="1.1" viewBox="0 0 48 48">
  <defs>
    <style>
      .cls-1 {
        fill: #184785;
      }

      .cls-2 {
        fill: #f4fbfd;
      }
    </style>
  </defs>
  <!-- Generator: Adobe Illustrator 28.7.1, SVG Export Plug-In . SVG Version: 1.2.0 Build 142)  -->
  <g>
    <g id="Layer_1">
      <g>
        <rect class="cls-2" width="48" height="48" rx="2" ry="2"/>
        <g>
          <path class="cls-1" d="M30.38,15.49h-.71v-1.55c.82-.29,1.42-1.07,1.42-2,0-1.17-.95-2.13-2.13-2.13s-2.13.95-2.13,2.13c0,.92.59,1.7,1.42,2v1.55h-8.51v-1.55c.82-.29,1.42-1.07,1.42-2,0-1.17-.95-2.13-2.13-2.13s-2.13.95-2.13,2.13c0,.92.59,1.7,1.42,2v1.55h-.71c-1.95,0-3.55,1.59-3.55,3.55v11.34c0,1.95,1.59,3.55,3.55,3.55h2.13v3.55c0,.27.15.51.39.63.1.05.21.07.32.07.15,0,.3-.05.43-.14l5.48-4.11h4.02c1.95,0,3.55-1.59,3.55-3.55v-11.34c0-1.95-1.59-3.55-3.55-3.55ZM20.45,20.1c1.23,0,2.13.75,2.13,1.77,0,.39-.32.71-.71.71s-.71-.32-.71-.71c0-.49-1.42-.49-1.42,0,0,.39-.32.71-.71.71s-.71-.32-.71-.71c0-1.03.89-1.77,2.13-1.77ZM29.28,28.18c-1.53.77-3.41,1.15-5.28,1.15s-3.75-.38-5.28-1.15c-.35-.18-.49-.6-.32-.95.18-.35.6-.49.95-.32,2.65,1.32,6.64,1.32,9.29,0,.35-.17.78-.03.95.32.18.35.03.78-.32.95ZM28.96,22.58c-.39,0-.71-.32-.71-.71,0-.49-1.42-.49-1.42,0,0,.39-.32.71-.71.71s-.71-.32-.71-.71c0-1.03.89-1.77,2.13-1.77s2.13.75,2.13,1.77c0,.39-.32.71-.71.71Z"/>
          <path class="cls-1" d="M9.82,23.29v2.84c0,1.17.95,2.13,2.13,2.13h.71v-7.09h-.71c-1.17,0-2.13.95-2.13,2.13Z"/>
          <path class="cls-1" d="M36.05,21.16h-.71v7.09h.71c1.17,0,2.13-.95,2.13-2.13v-2.84c0-1.17-.95-2.13-2.13-2.13Z"/>
        </g>
      </g>
    </g>
  </g>
</svg>