<svg width="226" height="77" viewBox="0 0 226 77" fill="none" xmlns="http://www.w3.org/2000/svg">
<g clip-path="url(#clip0_11714_2)">
<path d="M92.7586 45.8594C93.6346 45.3599 94.6288 45.1061 95.6365 45.1245C96.4198 45.1174 97.1942 45.2912 97.8995 45.6326C98.6097 45.9722 99.2437 46.4527 99.7631 47.045L101.627 45.1778C100.916 44.2991 100.006 43.6024 98.9737 43.1453C97.7404 42.6385 96.4117 42.4073 95.0801 42.4678C93.7549 42.5278 92.4613 42.8929 91.2996 43.5347C90.0463 44.2669 89.0105 45.3207 88.2992 46.5876C87.5948 47.9284 87.2267 49.4209 87.2267 50.9361C87.2267 52.4513 87.5948 53.9438 88.2992 55.2846C88.9914 56.573 90.0293 57.6417 91.2957 58.3702C92.5622 59.0986 94.0067 59.4578 95.4661 59.4071C96.6651 59.4065 97.8528 59.1765 98.9657 58.7296C99.9957 58.2679 100.904 57.572 101.619 56.697L99.7551 54.8298C99.2536 55.4547 98.6161 55.9565 97.8915 56.2969C97.166 56.6319 96.3767 56.8052 95.5779 56.8051C94.5711 56.8169 93.5788 56.564 92.7 56.0715C91.8681 55.5882 91.1847 54.8851 90.7246 54.039C90.2573 53.1098 90.0065 52.0865 89.9911 51.0461C89.9858 50.0032 90.2378 48.9752 90.7246 48.0533C91.1847 47.1444 91.888 46.3815 92.7559 45.85L92.7586 45.8594ZM89.8806 26.7701H97.781V33.8294H100.603V17.3381H97.781V24.1147H89.8806V17.3381H87.0586V33.8294H89.8806V26.7701ZM104.103 33.8294H106.925V17.3381H104.103V33.8294ZM119.001 18.073C117.926 17.568 116.744 17.3354 115.559 17.3955H110.479V33.8307H113.301V29.0867H115.564C116.745 29.0915 117.915 28.8611 119.006 28.4092C119.955 27.9868 120.747 27.2756 121.269 26.3766C121.788 25.4237 122.059 24.3557 122.059 23.2704C122.059 22.1851 121.788 21.1172 121.269 20.1643C120.766 19.236 119.971 18.501 119.006 18.0743L119.001 18.073ZM118.21 25.6404C117.406 26.2619 116.401 26.5635 115.388 26.4873H113.3V19.9362H115.388C116.401 19.86 117.406 20.1616 118.21 20.7831C118.537 21.0936 118.792 21.4718 118.958 21.8912C119.123 22.3107 119.196 22.7614 119.17 23.2118C119.209 23.6634 119.142 24.118 118.976 24.5395C118.809 24.961 118.547 25.3379 118.21 25.6404ZM146.766 17.3941L139.148 33.8294H142.365L144.058 30.0457H152.517L154.21 33.8294H157.483L149.865 17.3381H146.766V17.3941ZM145.13 27.617L148.29 20.4443L151.45 27.617H145.13ZM116.461 43.5441C115.148 42.8224 113.67 42.4548 112.172 42.4771C110.678 42.489 109.209 42.8546 107.883 43.5441C106.622 44.2589 105.586 45.3132 104.892 46.5876C104.175 47.9237 103.806 49.4197 103.819 50.9368C103.833 52.4506 104.2 53.9401 104.892 55.286C105.601 56.5509 106.633 57.6037 107.883 58.3362C109.196 59.0578 110.674 59.4254 112.172 59.4031C113.666 59.3912 115.135 59.0257 116.461 58.3362C117.711 57.6035 118.743 56.5507 119.452 55.286C120.17 53.9499 120.539 52.4539 120.525 50.9368C120.511 49.423 120.144 47.9335 119.452 46.5876C118.743 45.3229 117.711 44.2701 116.461 43.5374V43.5441ZM116.912 53.8789C116.459 54.7265 115.799 55.4455 114.994 55.9688C114.156 56.4607 113.2 56.7147 112.229 56.7037C111.262 56.6874 110.313 56.4352 109.464 55.9688C108.621 55.4929 107.949 54.7612 107.546 53.8789C107.073 52.9521 106.822 51.9273 106.813 50.8861C106.801 49.8424 107.053 48.8127 107.546 47.8933C107.999 47.0457 108.659 46.3267 109.464 45.8034C110.302 45.3116 111.258 45.0575 112.229 45.0685C113.197 45.0848 114.146 45.337 114.994 45.8034C115.838 46.2793 116.51 47.0109 116.912 47.8933C117.394 48.8172 117.646 49.8442 117.646 50.8868C117.646 51.9293 117.394 52.9564 116.912 53.8803V53.8789ZM212.851 42.6958V45.2939H217.987V59.1871H220.864V45.2939H225.996V42.6958H212.851ZM208.28 53.8216L199.76 42.6958H197.39V59.1871H200.268V48.0613L208.787 59.1871H211.158V42.6958H208.28V53.8216ZM137.063 42.6958L132.271 51.4502L127.362 42.6958H123.806V59.1871H126.853V47.7786L132.215 57.2665L137.689 47.6092V59.131H140.736V42.6398H137.067L137.063 42.6958ZM152.638 43.3733C151.543 42.868 150.342 42.6355 149.138 42.6958H143.997V59.1871H146.875V54.4431H149.138C150.338 54.4478 151.526 54.2176 152.638 53.7656C153.59 53.3282 154.394 52.6218 154.951 51.733C155.47 50.78 155.741 49.7121 155.741 48.6268C155.741 47.5415 155.47 46.4736 154.951 45.5206C154.416 44.5864 153.609 43.8379 152.638 43.3747V43.3733ZM151.847 50.9981C151.025 51.6276 150 51.9293 148.969 51.845H146.825V45.2939H148.969C149.998 45.228 151.017 45.5279 151.847 46.1408C152.174 46.4513 152.429 46.8295 152.595 47.2489C152.76 47.6684 152.833 48.119 152.807 48.5694C152.854 49.0214 152.791 49.478 152.625 49.9007C152.459 50.3235 152.193 50.6999 151.851 50.9981H151.847ZM133.73 30.0497L135.423 33.8334H138.697L131.078 17.3421H127.974L120.412 33.8334H123.631L125.324 30.0497H133.73ZM129.554 20.447L132.714 27.6197H126.394L129.554 20.447ZM161.27 42.6985H158.392V59.1897H169.341V56.5903H161.27V42.6985ZM171.71 59.1337H174.588V42.6398H171.71V59.1337ZM184.408 42.6985L176.79 59.1897H180.007L181.701 55.406H190.165L191.859 59.1897H195.132L187.514 42.6985H184.408ZM182.772 52.9773L185.932 45.8047L189.093 52.9773H182.772Z" fill="white"/>
<path d="M43.0897 70.3209C43.123 72.6122 43.1549 74.282 43.1882 75.1009C43.2208 75.2073 43.2208 75.3211 43.1882 75.4276V75.657C43.1866 76.1119 43.2526 76.5646 43.3839 77C43.5151 76.5646 43.5811 76.1119 43.5795 75.657C43.5795 75.493 43.6448 73.103 43.7433 69.2726C43.71 69.3059 43.678 69.3379 43.678 69.3713C43.4515 69.6678 43.2544 69.9859 43.0897 70.3209ZM36.2848 22.5196C36.8254 21.9509 37.2874 21.3121 37.6586 20.6204C37.3924 21.2099 36.3833 23.4359 37.3644 23.6319C38.444 23.828 39.6527 23.4985 41.8437 20.7178C41.7785 17.1488 41.7106 14.0386 41.68 11.6819H40.3395C39.8664 11.7237 39.3906 11.6398 38.9601 11.4387C38.5297 11.2376 38.1597 10.9263 37.8875 10.5363C37.2903 9.55181 36.9945 8.41335 37.0369 7.26205C37.0615 6.35271 36.9001 5.44796 36.5626 4.60345C36.2252 3.75893 35.7189 2.99252 35.0748 2.35136C34.0375 1.74839 32.8753 1.39331 31.6787 1.31374C30.4821 1.23416 29.2832 1.43224 28.1755 1.89256C27.2596 2.25266 25.4293 3.20225 23.6309 4.0865C22.251 4.8759 20.7792 5.49182 19.2488 5.92034C20.3283 5.42954 21.766 4.70934 23.3367 3.82509C25.1351 2.84349 27.032 1.79521 27.9798 1.40176C29.8767 0.648222 33.5054 0.420156 35.369 1.92591C36.071 2.60862 36.625 3.42905 36.9963 4.33595C37.3675 5.24284 37.5481 6.21671 37.5268 7.19669C37.4853 8.26246 37.746 9.31821 38.2789 10.2415C38.5326 10.5725 38.8683 10.8313 39.2527 10.992C39.637 11.1527 40.0567 11.2099 40.47 11.1578H41.6467V10.3069C40.6004 10.3722 39.0962 10.4403 38.4426 9.03054C37.6573 7.3274 38.5079 2.97419 35.8922 1.14035C33.2764 -0.693492 29.0913 -0.234692 25.3627 1.92591C20.6666 4.72496 15.7727 7.1766 10.7201 9.26127C7.31354 10.7202 3.79156 11.8921 0.190704 12.7649C-0.49617 12.8983 0.747127 13.3544 3.32956 13.4198C4.91132 13.4573 6.49395 13.4128 8.07111 13.2864L27.036 4.64266C27.036 4.64266 10.6868 12.7956 9.31307 13.6785C7.93933 14.5614 6.82782 14.8575 6.92632 15.679C7.02483 16.5006 8.07111 16.3993 10.9477 16.3339C12.4658 16.3948 13.9826 16.1843 15.427 15.7124C16.4081 15.4176 27.0347 10.5109 27.0347 10.5109C27.0347 10.5109 15.656 16.1752 14.02 17.4849C12.384 18.7946 14.1531 19.2187 15.262 19.2534C17.2694 19.3173 19.2698 18.9837 21.1483 18.2718C22.8482 17.4209 28.1462 14.0159 28.1462 14.0159C28.1462 14.0159 22.9148 17.781 21.9004 18.6319C21.0831 19.3201 20.6585 19.9082 20.8542 20.6324C21.1483 21.5487 22.7178 21.4513 24.8103 20.6978C25.8634 20.3452 26.8642 19.8517 27.7854 19.2307C28.6028 18.4772 30.8923 16.4473 30.8923 16.4473C29.6585 17.7011 28.5215 19.0472 27.4913 20.4737C26.8377 21.6847 26.7059 21.9795 27.0333 22.6677C27.4913 23.6493 30.9576 22.6343 31.9386 21.5874C32.6679 20.7688 33.345 19.9051 33.966 19.0013C33.4391 19.844 33.0111 20.7449 32.6907 21.6861C32.4618 22.6677 32.2009 23.4545 33.1487 23.5532C33.7152 23.7029 34.3129 23.685 34.8695 23.5015C35.426 23.3181 35.9176 22.9771 36.2848 22.5196ZM42.7595 44.8151L43.0537 44.6191C43.2281 44.515 43.3922 44.3944 43.5436 44.259C43.8098 44.0949 44.0667 43.8989 44.329 43.7348C44.3623 41.8676 44.4275 39.9698 44.4621 38.1039C43.9385 37.8745 43.3825 37.6451 42.7942 37.4157C42.7609 37.4157 42.7289 37.3824 42.6957 37.3824C42.6304 37.3491 42.5972 37.3491 42.5319 37.3171C42.1392 37.1837 41.7798 37.0223 41.3552 36.8916C40.8653 36.6955 40.3741 36.5315 39.8843 36.3354C36.615 38.0692 35.96 38.8895 35.96 40.4939C35.96 42.7532 37.8889 43.7682 41.2247 45.8954C41.7452 45.5046 42.2684 45.1432 42.7595 44.8165V44.8151ZM38.7368 40.7913C38.7368 40.7913 38.5079 39.3509 42.1978 37.6811C42.2963 37.6478 42.3935 37.5824 42.492 37.5478C42.5253 39.8071 42.5572 42.0664 42.6251 44.3243C40.7974 43.0813 38.7368 41.9023 38.7368 40.7913ZM44.3276 68.5884C44.1639 68.7844 44.0002 68.9818 43.8378 69.1445C44.2582 69.7381 44.5132 70.4332 44.5763 71.1582C44.6395 71.8833 44.5086 72.6121 44.1972 73.2697C44.6705 72.7733 44.9855 72.1469 45.1019 71.4703C45.2183 70.7938 45.1309 70.0978 44.8508 69.4713C44.6871 69.1765 44.5233 68.8831 44.3276 68.5884ZM42.8235 55.1646L44.0335 56.3757L44.8508 57.1945C44.8841 57.2279 44.9493 57.2599 45.0145 57.3279C47.2375 55.3967 49.2649 53.5629 49.2649 51.2716C49.2649 49.4711 47.5344 47.8333 45.8039 46.5236C45.6333 46.6211 45.4696 46.7302 45.314 46.8504C44.9213 47.1171 44.5619 47.3411 44.2345 47.5705C44.23 47.5704 44.2256 47.5711 44.2215 47.5727C44.2174 47.5743 44.2136 47.5768 44.2105 47.5799C44.2074 47.583 44.2049 47.5868 44.2033 47.5909C44.2017 47.595 44.201 47.5995 44.2012 47.6039C44.136 47.6693 44.0375 47.7026 43.9722 47.7679C43.5143 48.0947 43.0897 48.3894 42.697 48.6842C42.7622 50.8781 42.7955 53.0708 42.8301 55.1673L42.8235 55.1646ZM44.2291 47.9293C46.3869 49.5004 47.2375 50.5154 47.2375 51.629C47.2375 52.7747 46.0275 54.1177 44.0654 56.0822C44.0987 53.4628 44.1639 50.7474 44.2291 47.9293ZM56.1642 16.4659C56.1642 16.4659 58.4525 18.4958 59.2711 19.2494C60.1844 19.884 61.1872 20.3785 62.2463 20.7164C64.3388 21.47 65.9083 21.5674 66.2024 20.6511C66.4314 19.9309 65.9735 19.3094 65.1562 18.6505C64.1432 17.7996 58.9104 14.0346 58.9104 14.0346C58.9104 14.0346 64.2071 17.4395 65.9083 18.2904C67.7868 19.0024 69.7871 19.336 71.7946 19.272C72.9394 19.2387 74.6726 18.8133 73.0366 17.5036C71.4006 16.1939 60.0219 10.5296 60.0219 10.5296C60.0219 10.5296 70.6165 15.4737 71.6295 15.7311C73.0779 16.1856 74.5917 16.3957 76.1089 16.3526C78.9868 16.4179 79.9998 16.5166 80.1303 15.6977C80.2634 14.9122 79.1173 14.6174 77.7435 13.6972C76.3698 12.8129 60.0206 4.66133 60.0206 4.66133L78.9855 13.3051C80.5626 13.4315 82.1453 13.476 83.727 13.4384C86.3108 13.3731 87.5527 12.9143 86.8659 12.7836C83.2717 11.8877 79.7515 10.7164 76.3365 9.27994C71.2778 7.20869 66.3829 4.75655 61.6938 1.94458C57.9986 -0.189347 53.7801 -0.67482 51.1644 1.15902C48.5487 2.99286 49.3993 7.31406 48.614 9.04921C47.9604 10.4576 46.4562 10.3922 45.4099 10.3256C45.4145 10.6096 45.4034 10.8937 45.3766 11.1765H46.5866C46.9999 11.2286 47.4195 11.1714 47.8039 11.0107C48.1883 10.8499 48.524 10.5912 48.7777 10.2602C49.3139 9.33825 49.575 8.2815 49.5298 7.21537C49.5084 6.23538 49.6891 5.26152 50.0603 4.35462C50.4316 3.44772 50.9855 2.62729 51.6876 1.94458C53.5512 0.438828 57.1812 0.668227 59.0768 1.42044C60.6675 2.14259 62.2175 2.95158 63.7199 3.84377C65.2893 4.72801 66.7283 5.44421 67.8078 5.93901C66.2754 5.5194 64.8024 4.90632 63.4243 4.11451C61.6592 3.19826 59.8302 2.28067 58.8798 1.92057C57.772 1.46025 56.5732 1.26217 55.3766 1.34174C54.1799 1.42131 53.0178 1.77639 51.9804 2.37936C51.3298 3.01568 50.8192 3.78124 50.4813 4.62692C50.1434 5.4726 49.9857 6.37971 50.0183 7.29005C50.0645 8.44176 49.7684 9.58129 49.1677 10.5643C48.8997 10.9586 48.5304 11.2732 48.0989 11.4748C47.6674 11.6764 47.1895 11.7577 46.7157 11.7099H45.3753C45.31 14.0666 45.2421 17.1448 45.1796 20.6458C47.4026 23.4945 48.6778 23.8546 49.7241 23.6252C50.7052 23.4292 49.7241 21.2019 49.4299 20.6138C49.8204 21.2931 50.2808 21.9297 50.8037 22.5129C51.1646 22.9611 51.6449 23.2975 52.189 23.483C52.7331 23.6686 53.3185 23.6957 53.8773 23.5612C54.8584 23.4279 54.5642 22.677 54.3352 21.694C54.0148 20.7529 53.5869 19.852 53.06 19.0093C53.6891 19.9071 54.3658 20.7703 55.0873 21.5954C56.0684 22.6436 59.5347 23.6906 59.9926 22.6757C60.2868 22.0208 60.1883 21.6941 59.5347 20.4817C58.5329 19.0447 57.4054 17.6999 56.1656 16.4633L56.1642 16.4659ZM43.5755 6.44716C44.1007 6.44589 44.6134 6.28599 45.0465 5.98836C45.4751 5.6928 45.8144 5.28498 46.0275 4.80938C46.2283 4.32269 46.2851 3.78842 46.1913 3.27027C46.0857 2.75322 45.8366 2.27657 45.4724 1.89523C45.096 1.52393 44.6178 1.27322 44.0987 1.17503C43.5839 1.07597 43.0514 1.13193 42.5683 1.33583C42.0853 1.53973 41.6733 1.88243 41.3845 2.32068C41.0885 2.75264 40.9289 3.26378 40.9266 3.78775C40.9251 4.13561 40.9916 4.48041 41.1222 4.8027C41.2485 5.12891 41.4502 5.4205 41.7106 5.6536C41.9498 5.9076 42.2396 6.10844 42.5612 6.2431C42.882 6.37695 43.2267 6.44366 43.5742 6.43915L43.5755 6.44716ZM52.2746 26.3513C52.2746 26.3513 52.2094 24.5175 49.2343 24.3214C46.1939 24.1254 46.0621 25.4351 46.1274 25.9219C46.3563 25.9219 46.552 25.9872 46.552 26.0553C46.552 26.1233 46.3883 26.1886 46.1926 26.1886C46.3563 26.6794 46.8142 27.2689 48.1214 27.9224C48.79 28.3203 49.5803 28.4601 50.3445 28.3159C50.5421 28.4331 50.7099 28.5947 50.8346 28.788C50.9594 28.9812 51.0376 29.2008 51.0633 29.4295C51.0633 30.0844 49.9185 31.3607 44.5566 34.0455C44.8841 19.5748 45.1783 6.87128 45.1783 6.87128H45.5057C45.6414 6.86193 45.7691 6.80371 45.8653 6.70736C45.9614 6.61102 46.0195 6.48307 46.0289 6.34714V6.18309C46.0338 6.116 46.0224 6.04871 45.9956 5.98703C45.9706 5.91908 45.9238 5.86137 45.8625 5.82298C45.5778 6.14711 45.234 6.41375 44.8495 6.60854C44.462 6.79357 44.0366 6.88493 43.6075 6.87528C43.18 6.86891 42.758 6.77828 42.3655 6.60854C41.9691 6.4332 41.6213 6.16353 41.3525 5.82298C41.2984 5.86895 41.2533 5.92457 41.2194 5.98703C41.1926 6.04871 41.1812 6.116 41.1861 6.18309V6.34714C41.1955 6.48307 41.2536 6.61102 41.3497 6.70736C41.4459 6.80371 41.5736 6.86193 41.7093 6.87128H42.0367C42.0367 6.87128 42.2657 19.2147 42.4947 33.424L43.9336 34.1442C43.9989 34.1775 44.0974 34.2095 44.1626 34.2429C45.3726 34.8324 46.3856 35.3232 47.2362 35.782C50.1142 34.6683 52.9255 33.392 53.7761 31.5915C54.2028 30.6841 54.2858 29.6524 54.0095 28.6883C53.7333 27.7243 53.1167 26.8937 52.2746 26.3513ZM48.2812 25.5978C47.9537 25.5978 47.6928 25.4337 47.6928 25.2377C47.6928 25.0416 47.959 24.8776 48.2812 24.8776C48.6033 24.8776 48.8695 25.0416 48.8695 25.2377C48.8695 25.4337 48.6033 25.5978 48.2812 25.5978ZM43.0897 67.0466C43.3559 66.7199 43.5795 66.3918 43.8418 66.097C43.8751 64.2298 43.9403 62.1359 43.9749 59.8766C43.6474 59.5485 43.288 59.2218 42.8953 58.8617C42.7622 58.763 42.6664 58.6323 42.5359 58.5349C42.3809 58.3839 42.2173 58.2418 42.0461 58.1095C41.1302 58.9604 39.3318 60.8596 39.3318 62.4973C39.3318 64.4286 41.1955 66.3931 42.6011 67.8015C42.7256 67.527 42.8907 67.2729 43.091 67.048L43.0897 67.0466ZM42.894 59.2538C42.9592 62.0372 42.9925 64.5886 43.0271 66.7839C41.9476 65.3435 40.8041 63.8697 40.8041 62.8548C40.8041 61.9052 41.3605 60.8249 42.8967 59.2538H42.894ZM43.6461 34.5683C37.2699 31.4901 35.9614 30.083 35.9614 29.3949C35.987 29.1662 36.0653 28.9465 36.19 28.7533C36.3147 28.5601 36.4825 28.3984 36.6802 28.2812C37.4441 28.443 38.2409 28.302 38.9032 27.8878C40.2117 27.2663 40.6683 26.6434 40.832 26.154C40.6364 26.154 40.4726 26.0886 40.4726 26.0206C40.4726 25.9526 40.6683 25.8872 40.8973 25.8872V25.8539C40.9306 25.3631 40.7642 24.0854 37.7584 24.2828C34.7833 24.4788 34.7181 26.3127 34.7181 26.3127C33.8841 26.8527 33.277 27.6806 33.0118 28.6393C32.7465 29.5981 32.8417 30.621 33.2791 31.5141C34.6529 34.4283 41.0943 35.9673 44.8215 37.6371C48.5168 39.3069 48.2825 40.7473 48.2825 40.7473C48.2825 41.9917 45.7972 43.3014 43.8351 44.6764C41.873 46.0515 37.7212 48.4415 37.7212 51.2569C37.7212 53.843 40.3049 55.8409 42.8221 58.0668C45.3726 60.2928 46.1899 61.6358 46.1899 62.8801C46.1899 64.5833 43.3772 66.8746 41.9396 69.7234C40.5019 72.5721 43.3453 76.992 42.4627 74.6674C42.0475 73.7578 41.8977 72.749 42.0308 71.7577C42.1639 70.7664 42.5744 69.8332 43.2148 69.0658C44.6538 67.0653 47.7274 65.1047 47.7274 62.452C47.7274 60.2261 44.49 57.6067 44.49 57.6067C41.6121 54.7259 39.7818 53.0881 39.7818 51.6477C39.7818 50.2073 41.1555 48.9296 45.0132 46.4089C48.8389 43.9202 51.0952 42.9413 51.0952 40.5153C51.0965 38.4 50.0117 37.6465 43.6421 34.5683H43.6461ZM38.7408 24.9096C39.0683 24.9096 39.3292 25.0737 39.3292 25.2697C39.3292 25.4658 39.0629 25.6298 38.7408 25.6298C38.4187 25.6298 38.1524 25.4658 38.1524 25.2697C38.1524 25.0737 38.4187 24.9096 38.7408 24.9096Z" fill="white"/>
</g>
<defs>
<clipPath id="clip0_11714_2">
<rect width="226" height="77" fill="white"/>
</clipPath>
</defs>
</svg>
