<svg width="24" height="24" viewBox="0 0 24 24" fill="none" xmlns="http://www.w3.org/2000/svg">
<path d="M20.1566 20.6109C20.092 20.7286 19.9971 20.8267 19.8817 20.8951C19.7662 20.9636 19.6346 20.9998 19.5004 21H15.0004C14.8741 21 14.75 20.9681 14.6393 20.9073C14.5287 20.8465 14.4352 20.7587 14.3676 20.6522L10.5716 14.6869L5.05536 20.7544C4.92089 20.8988 4.7349 20.9845 4.53772 20.9927C4.34054 21.0009 4.14805 20.9311 4.002 20.7984C3.85595 20.6657 3.7681 20.4807 3.7575 20.2836C3.74689 20.0866 3.81439 19.8933 3.94536 19.7456L9.7363 13.3706L3.86755 4.15313C3.79527 4.03973 3.75481 3.90898 3.7504 3.77458C3.746 3.64018 3.7778 3.50707 3.8425 3.38918C3.90719 3.27129 4.0024 3.17296 4.11813 3.10449C4.23387 3.03603 4.36589 2.99993 4.50036 3H9.00036C9.12659 3.00004 9.25077 3.03194 9.36139 3.09274C9.472 3.15353 9.56549 3.24127 9.63318 3.34781L13.4291 9.31312L18.9454 3.24562C19.0798 3.10117 19.2658 3.01555 19.463 3.00731C19.6602 2.99907 19.8527 3.06888 19.9987 3.20161C20.1448 3.33435 20.2326 3.51929 20.2432 3.71636C20.2538 3.91343 20.1863 4.10674 20.0554 4.25438L14.2644 10.6247L20.1332 19.8478C20.2051 19.9613 20.2451 20.0919 20.2493 20.2262C20.2534 20.3604 20.2214 20.4933 20.1566 20.6109Z" fill="black"/>
</svg>
